<svg width="11" height="12" viewBox="0 0 11 12" fill="none" xmlns="http://www.w3.org/2000/svg">
<path d="M4.80859 7.62939e-06C5.00368 -0.000679924 5.19666 0.0393658 5.37598 0.116219C5.55532 0.193114 5.71753 0.305459 5.85156 0.447273C6.1247 0.73514 6.26573 1.1131 6.24707 1.51075L6.16602 3.15723H9.37793C9.53924 3.15708 9.69773 3.19973 9.83691 3.28126C10.378 3.59867 10.7148 4.1682 10.7148 4.76954C10.7148 5.14856 10.5902 5.51323 10.3652 5.81055C10.4133 5.97102 10.4377 6.13818 10.4404 6.30665C10.4404 6.68559 10.3157 7.05038 10.0908 7.34766C10.139 7.50821 10.163 7.67421 10.1631 7.84278C10.1631 8.22174 10.0384 8.5865 9.81348 8.8838C9.86164 9.04436 9.8857 9.21033 9.88574 9.37891C9.88574 10.0699 9.47435 10.693 8.83691 10.9649C8.72589 11.013 8.60548 11.0371 8.48242 11.0371H0.428711C0.191722 11.037 0 10.8454 0 10.6084V5.73341C0.000229572 5.4966 0.191864 5.30575 0.428711 5.30567H2.16016L3.31055 1.13966C3.49546 0.468825 4.11226 7.62939e-06 4.80859 7.62939e-06ZM0.964844 6.26954V10.0732H2.0498V6.26954H0.964844ZM4.80469 0.965828C4.67626 0.966679 4.55121 1.00984 4.44922 1.0879C4.34736 1.16592 4.27362 1.27482 4.23926 1.39845L2.90625 6.22657V10.0713H8.46875C8.74178 9.94802 8.91895 9.67782 8.91895 9.37794C8.91965 9.25031 8.88741 9.12468 8.82617 9.0127L8.63965 8.67188L8.93359 8.41798C9.09963 8.27333 9.19629 8.06276 9.19629 7.8418C9.197 7.7142 9.16473 7.58853 9.10352 7.47657L8.91699 7.13575L9.21094 6.88184C9.37695 6.7372 9.47266 6.52661 9.47266 6.30567C9.47337 6.17808 9.44205 6.05239 9.38086 5.94044L9.19434 5.59962L9.4873 5.34571C9.65338 5.19973 9.75 4.99052 9.75 4.76954C9.75 4.51374 9.60265 4.26708 9.36426 4.1211H5.1543L5.28223 1.46387C5.29016 1.30461 5.21942 1.15472 5.08691 1.05567C5.00666 0.995481 4.90634 0.965903 4.80469 0.965828Z" fill="#1890FF"/>
</svg>
