<svg width="15" height="16" viewBox="0 0 15 16" fill="none" xmlns="http://www.w3.org/2000/svg">
<path d="M7.87718 3.41072H7.01825C6.93968 3.41072 6.8754 3.475 6.8754 3.55357V8.46964C6.8754 8.51607 6.89683 8.55893 6.93433 8.58572L9.88611 10.7411C9.9504 10.7875 10.0397 10.775 10.0861 10.7107L10.5968 10.0143C10.645 9.94822 10.6308 9.85893 10.5665 9.81429L8.02004 7.97322V3.55357C8.02004 3.475 7.95575 3.41072 7.87718 3.41072ZM11.8022 4.75357L14.6022 5.4375C14.6915 5.45893 14.779 5.39107 14.779 5.3L14.7933 2.41607C14.7933 2.29643 14.6558 2.22857 14.5629 2.30357L11.7486 4.50179C11.7273 4.51824 11.7111 4.54036 11.7019 4.56561C11.6926 4.59086 11.6907 4.61821 11.6963 4.64451C11.7019 4.67081 11.7148 4.695 11.7335 4.7143C11.7523 4.73359 11.7761 4.7472 11.8022 4.75357ZM14.7968 10.1304L13.7843 9.78214C13.749 9.77004 13.7104 9.77224 13.6767 9.78826C13.643 9.80427 13.6169 9.83284 13.604 9.86786C13.57 9.95893 13.5343 10.0482 13.4968 10.1375C13.179 10.8893 12.7236 11.5661 12.1415 12.1464C11.5658 12.7239 10.8835 13.1842 10.1325 13.5018C9.35455 13.8307 8.51828 13.9995 7.67361 13.9982C6.82004 13.9982 5.99325 13.8321 5.21468 13.5018C4.46368 13.1842 3.78143 12.7239 3.20575 12.1464C2.6254 11.5661 2.17004 10.8893 1.8504 10.1375C1.52328 9.35908 1.35569 8.52293 1.35754 7.67857C1.35754 6.825 1.52361 5.99643 1.85397 5.21786C2.17183 4.46607 2.62718 3.78929 3.20933 3.20893C3.785 2.63146 4.46725 2.17117 5.21825 1.85357C5.99325 1.52322 6.82183 1.35714 7.6754 1.35714C8.52897 1.35714 9.35575 1.52322 10.1343 1.85357C10.8853 2.17117 11.5676 2.63146 12.1433 3.20893C12.3254 3.39286 12.4968 3.58393 12.654 3.78572L13.7218 2.95C12.3165 1.15357 10.129 -0.00178365 7.67183 2.06704e-06C3.39325 0.00178778 -0.0424605 3.47679 0.000396629 7.75714C0.0432538 11.9625 3.4629 15.3571 7.6754 15.3571C10.9879 15.3571 13.8093 13.2571 14.8843 10.3161C14.9111 10.2411 14.8718 10.1571 14.7968 10.1304Z" fill="#2A9D8F"/>
</svg>
