<svg width="15" height="14" viewBox="0 0 15 14" fill="none" xmlns="http://www.w3.org/2000/svg">
<path d="M14.2137 6.10625C14.7654 6.10625 14.9958 5.39732 14.5476 5.07054L7.72794 0.109821C7.63055 0.0384674 7.51296 0 7.39222 0C7.27149 0 7.1539 0.0384674 7.05651 0.109821L0.236867 5.07054C-0.211348 5.39554 0.0190095 6.10625 0.572581 6.10625H1.67794V12.7848H0.392224C0.313652 12.7848 0.249367 12.8491 0.249367 12.9277V13.8563C0.249367 13.9348 0.313652 13.9991 0.392224 13.9991H14.3922C14.4708 13.9991 14.5351 13.9348 14.5351 13.8563V12.9277C14.5351 12.8491 14.4708 12.7848 14.3922 12.7848H13.1065V6.10625H14.2137ZM7.39222 1.36875L12.2333 4.89018H2.55115L7.39222 1.36875ZM2.96365 6.10625H5.05294V12.7848H2.96365V6.10625ZM6.33865 6.10625H8.42794V12.7848H6.33865V6.10625ZM11.8208 12.7848H9.71365V6.10625H11.8208V12.7848Z" fill="black"/>
</svg>
