<svg width="16" height="16" viewBox="0 0 16 16" fill="none" xmlns="http://www.w3.org/2000/svg">
<g clip-path="url(#clip0_3537_10315)">
<path d="M14.2857 8.10741H7.89283V1.71455C7.89283 1.63598 7.82855 1.57169 7.74998 1.57169H7.28569C6.34765 1.57016 5.41857 1.75411 4.55189 2.11298C3.68522 2.47185 2.89805 2.99854 2.23569 3.66276C1.58339 4.31305 1.06364 5.08388 0.705333 5.93241C0.332485 6.81247 0.141163 7.75876 0.142833 8.71455C0.141297 9.65259 0.325255 10.5817 0.684122 11.4483C1.04299 12.315 1.56969 13.1022 2.2339 13.7645C2.88926 14.4199 3.65355 14.936 4.50355 15.2949C5.38361 15.6678 6.3299 15.8591 7.28569 15.8574C8.22373 15.8589 9.15281 15.675 10.0195 15.3161C10.8862 14.9573 11.6733 14.4306 12.3357 13.7663C12.991 13.111 13.5071 12.3467 13.866 11.4967C14.2389 10.6166 14.4302 9.67034 14.4285 8.71455V8.25026C14.4285 8.17169 14.3643 8.10741 14.2857 8.10741ZM11.4589 12.9253C10.906 13.4739 10.2502 13.9081 9.52917 14.2028C8.80815 14.4976 8.03606 14.6472 7.25712 14.6431C5.6839 14.636 4.20533 14.0199 3.09283 12.9074C1.97319 11.7878 1.35712 10.2985 1.35712 8.71455C1.35712 7.13062 1.97319 5.64134 3.09283 4.52169C4.06783 3.54669 5.32319 2.95205 6.67855 2.81633V9.32169H13.1839C13.0464 10.6842 12.4464 11.9467 11.4589 12.9253ZM15.8571 7.11455L15.8107 6.61098C15.6589 4.96634 14.9285 3.41455 13.7535 2.24312C12.5777 1.06954 11.0291 0.343237 9.37498 0.189549L8.86962 0.14312C8.78569 0.135978 8.71426 0.200263 8.71426 0.284192V7.14312C8.71426 7.22169 8.77855 7.28598 8.85712 7.28598L15.7143 7.26812C15.7982 7.26812 15.8643 7.19669 15.8571 7.11455ZM9.92498 6.07526V1.49312C11.0499 1.72856 12.0821 2.28565 12.8964 3.09669C13.7125 3.91098 14.2714 4.94669 14.5035 6.06276L9.92498 6.07526Z" fill="#2A9D8F"/>
</g>
<defs>
<clipPath id="clip0_3537_10315">
<rect width="16" height="16" fill="white"/>
</clipPath>
</defs>
</svg>
