<svg width="16" height="16" viewBox="0 0 16 16" fill="none" xmlns="http://www.w3.org/2000/svg">
<path d="M14.1429 7.96483H7.75001V1.57197C7.75001 1.4934 7.68572 1.42911 7.60715 1.42911H7.14287C6.20483 1.42758 5.27575 1.61154 4.40907 1.9704C3.5424 2.32927 2.75523 2.85597 2.09287 3.52019C1.44056 4.17047 0.920814 4.9413 0.562511 5.78983C0.189663 6.6699 -0.00165933 7.61618 1.08413e-05 8.57197C-0.0015252 9.51001 0.182432 10.4391 0.5413 11.3058C0.900168 12.1724 1.42686 12.9596 2.09108 13.622C2.74644 14.2773 3.51073 14.7934 4.36073 15.1523C5.24079 15.5252 6.18708 15.7165 7.14287 15.7148C8.0809 15.7164 9.00999 15.5324 9.87666 15.1735C10.7433 14.8147 11.5305 14.288 12.1929 13.6238C12.8482 12.9684 13.3643 12.2041 13.7232 11.3541C14.0961 10.474 14.2874 9.52776 14.2857 8.57197V8.10769C14.2857 8.02911 14.2214 7.96483 14.1429 7.96483ZM11.3161 12.7827C10.7631 13.3313 10.1074 13.7655 9.38634 14.0603C8.66533 14.355 7.89323 14.5047 7.1143 14.5005C5.54108 14.4934 4.06251 13.8773 2.95001 12.7648C1.83037 11.6452 1.2143 10.1559 1.2143 8.57197C1.2143 6.98804 1.83037 5.49876 2.95001 4.37911C3.92501 3.40411 5.18037 2.80947 6.53572 2.67376V9.17911H13.0411C12.9036 10.5416 12.3036 11.8041 11.3161 12.7827ZM15.7143 6.97197L15.6679 6.4684C15.5161 4.82376 14.7857 3.27197 13.6107 2.10054C12.4349 0.926965 10.8863 0.200659 9.23215 0.0469709L8.7268 0.00054237C8.64287 -0.00660049 8.57144 0.0576853 8.57144 0.141614V7.00054C8.57144 7.07911 8.63572 7.1434 8.7143 7.1434L15.5714 7.12554C15.6554 7.12554 15.7214 7.05411 15.7143 6.97197ZM9.78215 5.93269V1.35054C10.907 1.58598 11.9393 2.14307 12.7536 2.95411C13.5697 3.7684 14.1286 4.80411 14.3607 5.92019L9.78215 5.93269Z" fill="#1D3557"/>
</svg>
