<svg width="12" height="12" viewBox="0 0 12 12" fill="none" xmlns="http://www.w3.org/2000/svg">
<path d="M6 0C9.31339 0 12 2.68661 12 6C12 9.31339 9.31339 12 6 12C2.68661 12 0 9.31339 0 6C3.22207e-08 2.68661 2.68661 3.22197e-08 6 0ZM6 1.01758C3.24911 1.01758 1.01758 3.24911 1.01758 6C1.01758 8.75089 3.24911 10.9824 6 10.9824C8.75089 10.9824 10.9824 8.75089 10.9824 6C10.9824 3.24911 8.75089 1.01758 6 1.01758ZM8.50488 3.87012C8.59168 3.87043 8.64199 3.97015 8.58984 4.04102L5.76953 7.95117C5.73014 8.00615 5.67832 8.0511 5.61816 8.08203C5.55807 8.1129 5.49138 8.12884 5.42383 8.12891C5.35614 8.12891 5.28872 8.11296 5.22852 8.08203C5.16843 8.05111 5.11651 8.00611 5.07715 7.95117L3.4082 5.63672C3.35781 5.56588 3.40846 5.46711 3.49512 5.4668H4.12402C4.26183 5.46691 4.39042 5.53444 4.4707 5.64551L5.42383 6.96875L7.5293 4.04883C7.60958 3.93643 7.7395 3.87023 7.87598 3.87012H8.50488Z" fill="#2A9D8F"/>
</svg>
