<svg width="16" height="16" viewBox="0 0 16 16" fill="none" xmlns="http://www.w3.org/2000/svg">
<path d="M4.14291 3.32101C4.06434 3.32101 4.00005 3.3853 4.00005 3.46387V4.32101C4.00005 4.39958 4.06434 4.46387 4.14291 4.46387H11.0001C11.0786 4.46387 11.1429 4.39958 11.1429 4.32101V3.46387C11.1429 3.3853 11.0786 3.32101 11.0001 3.32101H4.14291ZM7.42862 5.89244H4.14291C4.06434 5.89244 4.00005 5.95672 4.00005 6.0353V6.89244C4.00005 6.97101 4.06434 7.0353 4.14291 7.0353H7.42862C7.50719 7.0353 7.57148 6.97101 7.57148 6.89244V6.0353C7.57148 5.95672 7.50719 5.89244 7.42862 5.89244ZM6.57148 14.071H2.57148V1.49958H12.5715V7.21387C12.5715 7.29244 12.6358 7.35672 12.7143 7.35672H13.7143C13.7929 7.35672 13.8572 7.29244 13.8572 7.21387V0.785296C13.8572 0.469224 13.6018 0.213867 13.2858 0.213867H1.8572C1.54112 0.213867 1.28577 0.469224 1.28577 0.785296V14.7853C1.28577 15.1014 1.54112 15.3567 1.8572 15.3567H6.57148C6.65005 15.3567 6.71434 15.2924 6.71434 15.2139V14.2139C6.71434 14.1353 6.65005 14.071 6.57148 14.071ZM14.4286 12.4996H11.8572V11.846C12.684 11.5996 13.2858 10.8353 13.2858 9.92815C13.2858 8.8228 12.3911 7.92815 11.2858 7.92815C10.1804 7.92815 9.28577 8.8228 9.28577 9.92815C9.28577 10.8335 9.88755 11.5996 10.7143 11.846V12.4996H8.14291C7.98577 12.4996 7.85719 12.6282 7.85719 12.7853V15.4996C7.85719 15.6567 7.98577 15.7853 8.14291 15.7853H14.4286C14.5858 15.7853 14.7143 15.6567 14.7143 15.4996V12.7853C14.7143 12.6282 14.5858 12.4996 14.4286 12.4996ZM10.3929 9.92815C10.3929 9.4353 10.7929 9.0353 11.2858 9.0353C11.7786 9.0353 12.1786 9.4353 12.1786 9.92815C12.1786 10.421 11.7786 10.821 11.2858 10.821C10.7929 10.821 10.3929 10.421 10.3929 9.92815ZM13.6072 14.6782H8.96434V13.6067H13.6072V14.6782Z" fill="#2A9D8F"/>
</svg>
