<svg width="20" height="20" viewBox="0 0 20 20" fill="none" xmlns="http://www.w3.org/2000/svg">
<path d="M8.33398 9.16699V14.167" stroke="#2A9D8F" stroke-width="1.66667" stroke-linecap="round" stroke-linejoin="round"/>
<path d="M11.666 9.16699V14.167" stroke="#2A9D8F" stroke-width="1.66667" stroke-linecap="round" stroke-linejoin="round"/>
<path d="M15.8327 5V16.6667C15.8327 17.1087 15.6571 17.5326 15.3445 17.8452C15.032 18.1577 14.608 18.3333 14.166 18.3333H5.83268C5.39065 18.3333 4.96673 18.1577 4.65417 17.8452C4.34161 17.5326 4.16602 17.1087 4.16602 16.6667V5" stroke="#2A9D8F" stroke-width="1.66667" stroke-linecap="round" stroke-linejoin="round"/>
<path d="M2.5 5H17.5" stroke="#2A9D8F" stroke-width="1.66667" stroke-linecap="round" stroke-linejoin="round"/>
<path d="M6.66602 5.00033V3.33366C6.66602 2.89163 6.84161 2.46771 7.15417 2.15515C7.46673 1.84259 7.89065 1.66699 8.33268 1.66699H11.666C12.108 1.66699 12.532 1.84259 12.8445 2.15515C13.1571 2.46771 13.3327 2.89163 13.3327 3.33366V5.00033" stroke="#2A9D8F" stroke-width="1.66667" stroke-linecap="round" stroke-linejoin="round"/>
</svg>
