<svg width="12" height="15" viewBox="0 0 12 15" fill="none" xmlns="http://www.w3.org/2000/svg">
<path d="M9.89286 3.67857V1.28571H11.4286C11.5071 1.28571 11.5714 1.22143 11.5714 1.14286V0.142857C11.5714 0.0642857 11.5071 0 11.4286 0H0.142857C0.0642857 0 0 0.0642857 0 0.142857V1.14286C0 1.22143 0.0642857 1.28571 0.142857 1.28571H1.67857V3.67857C1.67857 5.13393 2.43571 6.41429 3.57857 7.14286C2.43571 7.87143 1.67857 9.15179 1.67857 10.6071V13H0.142857C0.0642857 13 0 13.0643 0 13.1429V14.1429C0 14.2214 0.0642857 14.2857 0.142857 14.2857H11.4286C11.5071 14.2857 11.5714 14.2214 11.5714 14.1429V13.1429C11.5714 13.0643 11.5071 13 11.4286 13H9.89286V10.6071C9.89286 9.15179 9.13571 7.87143 7.99286 7.14286C9.13571 6.41429 9.89286 5.13393 9.89286 3.67857ZM8.60714 10.6071V13H2.96429V10.6071C2.96429 9.85357 3.25714 9.14464 3.79107 8.6125C4.32321 8.07857 5.03214 7.78571 5.78571 7.78571C6.53929 7.78571 7.24821 8.07857 7.78036 8.6125C8.31429 9.14464 8.60714 9.85357 8.60714 10.6071ZM8.60714 3.67857C8.60714 4.43214 8.31429 5.14107 7.78036 5.67321C7.24821 6.20714 6.53929 6.5 5.78571 6.5C5.03214 6.5 4.32321 6.20714 3.79107 5.67321C3.52796 5.41211 3.31938 5.10132 3.17744 4.75889C3.03551 4.41647 2.96305 4.04924 2.96429 3.67857V1.28571H8.60714V3.67857Z" fill="#1D3557"/>
</svg>
