<svg width="12" height="12" viewBox="0 0 12 12" fill="none" xmlns="http://www.w3.org/2000/svg">
<path d="M6 0C9.31339 0 12 2.68661 12 6C12 9.31339 9.31339 12 6 12C2.68661 12 0 9.31339 0 6C3.22197e-08 2.68661 2.68661 3.22207e-08 6 0ZM6 1.01758C3.24911 1.01758 1.01758 3.24911 1.01758 6C1.01758 8.75089 3.24911 10.9824 6 10.9824C8.75089 10.9824 10.9824 8.75089 10.9824 6C10.9824 3.24911 8.75089 1.01758 6 1.01758ZM4.28711 3.68164L6 5.39355L7.71289 3.68164L7.71387 3.68066H7.71484L8.31934 4.28516V4.28613L8.31836 4.28711L6.60645 6L8.31836 7.71289H8.31934V7.71484L7.71484 8.31934H7.71387L7.71289 8.31836L6 6.60645L4.28711 8.31836L4.28613 8.31934H4.28516L3.68066 7.71484V7.71387L3.68164 7.71289L5.39355 6L3.68164 4.28711H3.68066V4.28516L4.28516 3.68066H4.28613L4.28711 3.68164Z" fill="#F5222D"/>
</svg>
