<svg width="15" height="15" viewBox="0 0 15 15" fill="none" xmlns="http://www.w3.org/2000/svg">
<path d="M14.2768 10.5125C14.2704 10.4947 14.2606 10.4784 14.2479 10.4645C14.2351 10.4506 14.2198 10.4393 14.2027 10.4313C14.1856 10.4233 14.1671 10.4188 14.1482 10.4181C14.1294 10.4173 14.1106 10.4203 14.0929 10.4268L13 10.825V1.21429C13 0.542857 12.4571 0 11.7857 0H2.5C1.82857 0 1.28571 0.542857 1.28571 1.21429V10.825L0.191071 10.4268C0.175 10.4214 0.158929 10.4179 0.142857 10.4179C0.0642857 10.4179 0 10.4821 0 10.5607V11.625C0 11.6839 0.0375001 11.7375 0.0946429 11.7589L6.94643 14.2518C7.07321 14.2982 7.21071 14.2982 7.3375 14.2518L14.1911 11.7607C14.2482 11.7393 14.2857 11.6857 14.2857 11.6268V10.5625C14.2857 10.5446 14.2821 10.5286 14.2768 10.5125ZM7.14286 12.9554L2.57143 11.2929V1.28571H11.7143V11.2929L7.14286 12.9554ZM9.79643 3.57143H8.82321C8.76964 3.57143 8.71964 3.60179 8.69643 3.65L7.18393 6.66429H7.125L5.6125 3.65C5.60066 3.62649 5.58255 3.60672 5.56018 3.59285C5.5378 3.57899 5.51203 3.57157 5.48571 3.57143H4.49107C4.46786 3.57143 4.44464 3.57679 4.42321 3.58929C4.35357 3.62679 4.32857 3.71429 4.36607 3.78214L6.22143 7.20357H5.20357C5.125 7.20357 5.06071 7.26786 5.06071 7.34643V7.83036C5.06071 7.90893 5.125 7.97321 5.20357 7.97321H6.56071V8.66964H5.20357C5.125 8.66964 5.06071 8.73393 5.06071 8.8125V9.29643C5.06071 9.375 5.125 9.43929 5.20357 9.43929H6.56071V10.5714C6.56071 10.65 6.625 10.7143 6.70357 10.7143H7.59464C7.67321 10.7143 7.7375 10.65 7.7375 10.5714V9.4375H9.1C9.17857 9.4375 9.24286 9.37321 9.24286 9.29464V8.81071C9.24286 8.73214 9.17857 8.66786 9.1 8.66786H7.7375V7.97143H9.1C9.17857 7.97143 9.24286 7.90714 9.24286 7.82857V7.34464C9.24286 7.26607 9.17857 7.20179 9.1 7.20179H8.07143L9.92321 3.78036C9.93393 3.75893 9.94107 3.73571 9.94107 3.7125C9.93929 3.63571 9.875 3.57143 9.79643 3.57143Z" fill="black"/>
</svg>
