<svg width="16" height="14" viewBox="0 0 16 14" fill="none" xmlns="http://www.w3.org/2000/svg">
<path d="M7.14286 10.7143C7.14286 10.9416 7.23316 11.1596 7.39391 11.3204C7.55465 11.4811 7.77267 11.5714 8 11.5714C8.22733 11.5714 8.44534 11.4811 8.60609 11.3204C8.76684 11.1596 8.85714 10.9416 8.85714 10.7143C8.85714 10.487 8.76684 10.2689 8.60609 10.1082C8.44534 9.94745 8.22733 9.85714 8 9.85714C7.77267 9.85714 7.55465 9.94745 7.39391 10.1082C7.23316 10.2689 7.14286 10.487 7.14286 10.7143ZM7.42857 5.28571V8.57143C7.42857 8.65 7.49286 8.71429 7.57143 8.71429H8.42857C8.50714 8.71429 8.57143 8.65 8.57143 8.57143V5.28571C8.57143 5.20714 8.50714 5.14286 8.42857 5.14286H7.57143C7.49286 5.14286 7.42857 5.20714 7.42857 5.28571ZM15.9232 13.1429L8.49464 0.285714C8.38393 0.0946429 8.19286 0 8 0C7.80714 0 7.61429 0.0946429 7.50536 0.285714L0.0767862 13.1429C-0.142857 13.525 0.132143 14 0.571429 14H15.4286C15.8679 14 16.1429 13.525 15.9232 13.1429ZM1.93214 12.6446L8 2.14107L14.0679 12.6446H1.93214Z" fill="#2A9D8F"/>
</svg>
