<svg width="15" height="13" viewBox="0 0 15 13" fill="none" xmlns="http://www.w3.org/2000/svg">
<path d="M14.1429 0H5.28571C5.20714 0 5.14286 0.0642857 5.14286 0.142857V1.14286C5.14286 1.22143 5.20714 1.28571 5.28571 1.28571H14.1429C14.2214 1.28571 14.2857 1.22143 14.2857 1.14286V0.142857C14.2857 0.0642857 14.2214 0 14.1429 0ZM14.1429 7.57143H5.28571C5.20714 7.57143 5.14286 7.63571 5.14286 7.71429V8.71428C5.14286 8.79286 5.20714 8.85714 5.28571 8.85714H14.1429C14.2214 8.85714 14.2857 8.79286 14.2857 8.71428V7.71429C14.2857 7.63571 14.2214 7.57143 14.1429 7.57143ZM14.1429 11.3571H0.142857C0.0642857 11.3571 0 11.4214 0 11.5V12.5C0 12.5786 0.0642857 12.6429 0.142857 12.6429H14.1429C14.2214 12.6429 14.2857 12.5786 14.2857 12.5V11.5C14.2857 11.4214 14.2214 11.3571 14.1429 11.3571ZM14.1429 3.78571H0.142857C0.0642857 3.78571 0 3.85 0 3.92857V4.92857C0 5.00714 0.0642857 5.07143 0.142857 5.07143H14.1429C14.2214 5.07143 14.2857 5.00714 14.2857 4.92857V3.92857C14.2857 3.85 14.2214 3.78571 14.1429 3.78571Z" fill="black"/>
</svg>
