<svg width="18" height="18" viewBox="0 0 18 18" fill="none" xmlns="http://www.w3.org/2000/svg">
<path d="M15.7906 13.0581H14.3783C14.2819 13.0581 14.1915 13.1003 14.1313 13.1746C13.9906 13.3453 13.84 13.5101 13.6812 13.6668C13.0322 14.3165 12.2633 14.8343 11.4172 15.1916C10.5406 15.5618 9.59844 15.7517 8.64688 15.75C7.6846 15.75 6.75246 15.5612 5.87656 15.1916C5.03046 14.8343 4.2616 14.3165 3.6125 13.6668C2.96224 13.0192 2.44374 12.2517 2.08571 11.4067C1.71406 10.5308 1.52723 9.6007 1.52723 8.63842C1.52723 7.67615 1.71607 6.74601 2.08571 5.87012C2.4433 5.02436 2.95759 4.26298 3.6125 3.61008C4.26741 2.95717 5.0288 2.44289 5.87656 2.0853C6.75246 1.71566 7.6846 1.52682 8.64688 1.52682C9.60915 1.52682 10.5413 1.71365 11.4172 2.0853C12.265 2.44289 13.0263 2.95717 13.6812 3.61008C13.84 3.76878 13.9886 3.93351 14.1313 4.10226C14.1915 4.17659 14.2839 4.21878 14.3783 4.21878H15.7906C15.9172 4.21878 15.9955 4.07816 15.9252 3.97168C14.3844 1.57704 11.6884 -0.0080053 8.62478 3.04125e-05C3.81138 0.012084 -0.0477674 3.91945 0.000446895 8.72682C0.0486612 13.4578 3.90179 17.2768 8.64688 17.2768C11.7025 17.2768 14.3864 15.6938 15.9252 13.3052C15.9935 13.1987 15.9172 13.0581 15.7906 13.0581ZM17.5766 8.51186L14.7259 6.26186C14.6194 6.17749 14.4647 6.25383 14.4647 6.38842V7.91521H8.1567C8.0683 7.91521 7.99598 7.98753 7.99598 8.07592V9.20092C7.99598 9.28932 8.0683 9.36164 8.1567 9.36164H14.4647V10.8884C14.4647 11.023 14.6214 11.0994 14.7259 11.015L17.5766 8.76499C17.5958 8.74995 17.6113 8.73074 17.622 8.70882C17.6327 8.68689 17.6382 8.66282 17.6382 8.63842C17.6382 8.61403 17.6327 8.58996 17.622 8.56803C17.6113 8.5461 17.5958 8.5269 17.5766 8.51186Z" fill="black"/>
</svg>
