<svg width="16" height="16" viewBox="0 0 16 16" fill="none" xmlns="http://www.w3.org/2000/svg">
<g clip-path="url(#clip0_597_9818)">
<path d="M15.091 2.59464L14.0838 3.38214C12.7106 1.62679 10.5749 0.5 8.17669 0.5C4.03562 0.5 0.68383 3.84821 0.678473 7.99107C0.673116 12.1375 4.03205 15.5 8.17669 15.5C11.4142 15.5 14.1731 13.4464 15.2231 10.5696C15.2499 10.4946 15.2106 10.4107 15.1356 10.3857L14.1231 10.0375C14.0878 10.0254 14.0492 10.0276 14.0155 10.0436C13.9818 10.0596 13.9557 10.0882 13.9428 10.1232C13.9106 10.2125 13.8749 10.3018 13.8374 10.3893C13.5285 11.1214 13.0856 11.7786 12.5213 12.3429C11.9616 12.9036 11.2989 13.3511 10.5695 13.6607C9.81419 13.9804 9.00883 14.1429 8.18026 14.1429C7.3499 14.1429 6.54633 13.9804 5.79097 13.6607C5.06093 13.3524 4.39797 12.9048 3.83919 12.3429C3.27794 11.7832 2.83094 11.1197 2.52312 10.3893C2.20347 9.63214 2.04097 8.82857 2.04097 7.99821C2.04097 7.16786 2.20347 6.36429 2.52312 5.60714C2.83204 4.875 3.2749 4.21786 3.83919 3.65357C4.40347 3.08929 5.06062 2.64643 5.79097 2.33571C6.54633 2.01607 7.35169 1.85357 8.18026 1.85357C9.01062 1.85357 9.81419 2.01607 10.5695 2.33571C11.2996 2.64401 11.9625 3.09164 12.5213 3.65357C12.6981 3.83036 12.8642 4.01786 13.0178 4.21429L11.9428 5.05357C11.9215 5.07003 11.9053 5.09215 11.896 5.1174C11.8868 5.14265 11.8848 5.16999 11.8904 5.1963C11.896 5.2226 11.9089 5.24679 11.9277 5.26608C11.9464 5.28537 11.9702 5.29899 11.9963 5.30536L15.132 6.07321C15.2213 6.09464 15.3088 6.02679 15.3088 5.93571L15.3231 2.70536C15.3213 2.5875 15.1838 2.52143 15.091 2.59464Z" fill="#4F4F4F"/>
</g>
<defs>
<clipPath id="clip0_597_9818">
<rect width="16" height="16" fill="white"/>
</clipPath>
</defs>
</svg>
