<svg width="16" height="16" viewBox="0 0 16 16" fill="none" xmlns="http://www.w3.org/2000/svg">
<path d="M14.9464 10.0304L13.7768 9.03036C13.8321 8.69107 13.8607 8.34464 13.8607 7.99822C13.8607 7.65179 13.8321 7.30536 13.7768 6.96607L14.9464 5.96607C15.0347 5.89055 15.0978 5.78996 15.1275 5.67768C15.1571 5.5654 15.1519 5.44674 15.1125 5.3375L15.0964 5.29107C14.7744 4.39112 14.2923 3.55685 13.6732 2.82857L13.6411 2.79107C13.566 2.70277 13.4659 2.6393 13.354 2.60901C13.2421 2.57873 13.1237 2.58306 13.0143 2.62143L11.5625 3.1375C11.0268 2.69821 10.4286 2.35179 9.78215 2.10893L9.50179 0.591072C9.48064 0.476862 9.42523 0.371791 9.34294 0.289818C9.26065 0.207846 9.15537 0.152852 9.04107 0.132144L8.99286 0.123215C8.0625 -0.0446422 7.08393 -0.0446422 6.15357 0.123215L6.10536 0.132144C5.99107 0.152852 5.88578 0.207846 5.80349 0.289818C5.7212 0.371791 5.6658 0.476862 5.64465 0.591072L5.3625 2.11607C4.72123 2.35898 4.12405 2.70522 3.59465 3.14107L2.13215 2.62143C2.0228 2.58275 1.90427 2.57827 1.79232 2.60857C1.68036 2.63887 1.58027 2.70253 1.50536 2.79107L1.47322 2.82857C0.854908 3.55737 0.372818 4.3915 0.0500036 5.29107L0.0339322 5.3375C-0.046425 5.56071 0.0196465 5.81072 0.200004 5.96607L1.38393 6.97679C1.32858 7.3125 1.30179 7.65536 1.30179 7.99643C1.30179 8.33929 1.32858 8.68214 1.38393 9.01607L0.200004 10.0268C0.111782 10.1023 0.0486401 10.2029 0.018975 10.3152C-0.0106901 10.4275 -0.00547322 10.5461 0.0339322 10.6554L0.0500036 10.7018C0.373218 11.6018 0.851789 12.4321 1.47322 13.1643L1.50536 13.2018C1.58046 13.2901 1.68055 13.3536 1.79244 13.3838C1.90433 13.4141 2.02277 13.4098 2.13215 13.3714L3.59465 12.8518C4.12679 13.2893 4.72143 13.6357 5.3625 13.8768L5.64465 15.4018C5.6658 15.516 5.7212 15.6211 5.80349 15.703C5.88578 15.785 5.99107 15.84 6.10536 15.8607L6.15357 15.8696C7.09248 16.0384 8.05395 16.0384 8.99286 15.8696L9.04107 15.8607C9.15537 15.84 9.26065 15.785 9.34294 15.703C9.42523 15.6211 9.48064 15.516 9.50179 15.4018L9.78215 13.8839C10.4283 13.6417 11.0299 13.2942 11.5625 12.8554L13.0143 13.3714C13.1236 13.4101 13.2422 13.4146 13.3541 13.3843C13.4661 13.354 13.5662 13.2903 13.6411 13.2018L13.6732 13.1643C14.2946 12.4304 14.7732 11.6018 15.0964 10.7018L15.1125 10.6554C15.1929 10.4357 15.1268 10.1857 14.9464 10.0304ZM12.5089 7.17679C12.5536 7.44643 12.5768 7.72322 12.5768 8C12.5768 8.27679 12.5536 8.55357 12.5089 8.82321L12.3911 9.53929L13.725 10.6804C13.5228 11.1462 13.2675 11.5872 12.9643 11.9946L11.3071 11.4071L10.7464 11.8679C10.3196 12.2179 9.84465 12.4929 9.33036 12.6857L8.65 12.9411L8.33036 14.6732C7.82602 14.7304 7.31684 14.7304 6.8125 14.6732L6.49286 12.9375L5.81786 12.6786C5.30893 12.4857 4.83572 12.2107 4.4125 11.8625L3.85179 11.4L2.18393 11.9929C1.88036 11.5839 1.62679 11.1429 1.42322 10.6786L2.77143 9.52679L2.65536 8.8125C2.6125 8.54643 2.58929 8.27143 2.58929 8C2.58929 7.72679 2.61072 7.45357 2.65536 7.1875L2.77143 6.47322L1.42322 5.32143C1.625 4.85536 1.88036 4.41607 2.18393 4.00714L3.85179 4.6L4.4125 4.1375C4.83572 3.78929 5.30893 3.51429 5.81786 3.32143L6.49465 3.06607L6.81429 1.33036C7.31607 1.27322 7.82857 1.27322 8.33215 1.33036L8.65179 3.0625L9.33215 3.31786C9.84465 3.51072 10.3214 3.78572 10.7482 4.13572L11.3089 4.59643L12.9661 4.00893C13.2696 4.41786 13.5232 4.85893 13.7268 5.32322L12.3929 6.46429L12.5089 7.17679ZM7.575 4.67857C5.83929 4.67857 4.43215 6.08572 4.43215 7.82143C4.43215 9.55714 5.83929 10.9643 7.575 10.9643C9.31072 10.9643 10.7179 9.55714 10.7179 7.82143C10.7179 6.08572 9.31072 4.67857 7.575 4.67857ZM8.98929 9.23572C8.80379 9.42175 8.58334 9.56926 8.34063 9.66978C8.09791 9.7703 7.83771 9.82184 7.575 9.82143C7.04107 9.82143 6.53929 9.6125 6.16072 9.23572C5.97469 9.05022 5.82717 8.82977 5.72665 8.58705C5.62613 8.34434 5.57459 8.08414 5.575 7.82143C5.575 7.2875 5.78393 6.78571 6.16072 6.40714C6.53929 6.02857 7.04107 5.82143 7.575 5.82143C8.10893 5.82143 8.61072 6.02857 8.98929 6.40714C9.17532 6.59264 9.32284 6.81309 9.42336 7.05581C9.52388 7.29852 9.57541 7.55872 9.575 7.82143C9.575 8.35536 9.36607 8.85714 8.98929 9.23572Z" fill="#1D3557"/>
</svg>
