<svg width="14" height="15" viewBox="0 0 14 15" fill="none" xmlns="http://www.w3.org/2000/svg">
<path d="M4.14286 1.28571H4C4.07857 1.28571 4.14286 1.22143 4.14286 1.14286V1.28571H9.57143V1.14286C9.57143 1.22143 9.63571 1.28571 9.71428 1.28571H9.57143V2.57143H10.8571V1.14286C10.8571 0.5125 10.3446 0 9.71428 0H4C3.36964 0 2.85714 0.5125 2.85714 1.14286V2.57143H4.14286V1.28571ZM13.1429 2.57143H0.571429C0.255357 2.57143 0 2.82679 0 3.14286V3.71429C0 3.79286 0.0642857 3.85714 0.142857 3.85714H1.22143L1.6625 13.1964C1.69107 13.8054 2.19464 14.2857 2.80357 14.2857H10.9107C11.5214 14.2857 12.0232 13.8071 12.0518 13.1964L12.4929 3.85714H13.5714C13.65 3.85714 13.7143 3.79286 13.7143 3.71429V3.14286C13.7143 2.82679 13.4589 2.57143 13.1429 2.57143ZM10.7732 13H2.94107L2.50893 3.85714H11.2054L10.7732 13Z" fill="#4F4F4F"/>
</svg>
