<svg width="14" height="15" viewBox="0 0 14 15" fill="none" xmlns="http://www.w3.org/2000/svg">
<path d="M12.9018 11.6C12.565 10.8021 12.0761 10.0773 11.4625 9.46607C10.8508 8.85305 10.1262 8.36429 9.32862 8.02679C9.32147 8.02321 9.31433 8.02143 9.30719 8.01786C10.4197 7.21429 11.1429 5.90536 11.1429 4.42857C11.1429 1.98214 9.16076 0 6.71433 0C4.2679 0 2.28576 1.98214 2.28576 4.42857C2.28576 5.90536 3.00897 7.21429 4.12147 8.01964C4.11433 8.02321 4.10719 8.025 4.10005 8.02857C3.30005 8.36607 2.58219 8.85 1.96612 9.46786C1.3531 10.0796 0.864338 10.8042 0.52683 11.6018C0.195263 12.3826 0.016441 13.2197 4.46536e-05 14.0679C-0.000431963 14.0869 0.00291094 14.1059 0.00987649 14.1236C0.016842 14.1414 0.0272892 14.1575 0.0406025 14.1712C0.0539158 14.1848 0.0698258 14.1957 0.087395 14.2031C0.104964 14.2105 0.123837 14.2143 0.142902 14.2143H1.21433C1.2929 14.2143 1.3554 14.1518 1.35719 14.075C1.3929 12.6964 1.94647 11.4054 2.92504 10.4268C3.93754 9.41429 5.28219 8.85714 6.71433 8.85714C8.14647 8.85714 9.49112 9.41429 10.5036 10.4268C11.4822 11.4054 12.0358 12.6964 12.0715 14.075C12.0733 14.1536 12.1358 14.2143 12.2143 14.2143H13.2858C13.3048 14.2143 13.3237 14.2105 13.3413 14.2031C13.3588 14.1957 13.3747 14.1848 13.3881 14.1712C13.4014 14.1575 13.4118 14.1414 13.4188 14.1236C13.4257 14.1059 13.4291 14.0869 13.4286 14.0679C13.4108 13.2143 13.234 12.3839 12.9018 11.6ZM6.71433 7.5C5.89469 7.5 5.12326 7.18036 4.5429 6.6C3.96254 6.01964 3.6429 5.24821 3.6429 4.42857C3.6429 3.60893 3.96254 2.8375 4.5429 2.25714C5.12326 1.67679 5.89469 1.35714 6.71433 1.35714C7.53397 1.35714 8.3054 1.67679 8.88576 2.25714C9.46612 2.8375 9.78576 3.60893 9.78576 4.42857C9.78576 5.24821 9.46612 6.01964 8.88576 6.6C8.3054 7.18036 7.53397 7.5 6.71433 7.5Z" fill="#2A9D8F"/>
</svg>
